Coordinates
version=1
nRows=11
nColumns=26
inDegrees=yes

Units are S.I. units (second, meters, Newtons, ...)
Angles are in degrees.

endheader
time	pelvis_tilt	pelvis_list	pelvis_rotation	pelvis_tx	pelvis_ty	pelvis_tz	hip_flexion_r	hip_adduction_r	hip_rotation_r	knee_angle_r	knee_angle_r_beta	ankle_angle_r	subtalar_angle_r	mtp_angle_r	hip_flexion_l	hip_adduction_l	hip_rotation_l	knee_angle_l	knee_angle_l_beta	ankle_angle_l	subtalar_angle_l	mtp_angle_l	lumbar_extension	lumbar_bending	lumbar_rotation
      0.26666667	      6.74366804	      0.31215640	     -3.14105398	      0.27238809	      1.01861680	      0.15723863	      9.50140905	     -6.51468736	     -4.08499597	     59.89352447	     59.89352447	      0.69995378	      0.00000000	      0.00000000	      0.97230202	      0.91606928	    -13.94961880	     11.97527575	     11.97527575	      3.67826847	      0.00000000	      0.00000000	    -18.75846079	     -2.80721639	      1.67533344
      0.27500000	      6.73233586	      0.27552796	     -2.73228257	      0.28043166	      1.01948637	      0.15659911	     10.27302263	     -6.32460497	     -4.42156683	     59.00189572	     59.00189572	      0.76983973	      0.00000000	      0.00000000	      0.21315293	      1.00662009	    -13.47941935	     11.44536359	     11.44536359	      3.79328900	      0.00000000	      0.00000000	    -18.82105416	     -2.67421410	      1.46080724
      0.28333333	      6.62619087	      0.26197706	     -2.40006092	      0.28817045	      1.02003191	      0.15598480	     11.21761296	     -6.15161496	     -4.68036522	     58.07127973	     58.07127973	      1.26355988	      0.00000000	      0.00000000	     -0.26994387	      1.05514287	    -13.09423598	     11.22321279	     11.22321279	      4.01857871	      0.00000000	      0.00000000	    -18.81334544	     -2.56920156	      1.28541323
      0.29166667	      6.46891438	      0.26394106	     -2.09199760	      0.29585720	      1.02030924	      0.15534434	     12.20536771	     -5.98354167	     -4.87254143	     57.04993080	     57.04993080	      1.86945027	      0.00000000	      0.00000000	     -0.70002594	      1.12516155	    -12.72346556	     10.99088877	     10.99088877	      4.33171039	      0.00000000	      0.00000000	    -18.74573127	     -2.47614544	      1.15744381
      0.30000000	      6.35035321	      0.24651450	     -1.70578058	      0.30333236	      1.02064807	      0.15472209	     13.09413326	     -5.76932002	     -5.04594375	     55.84656308	     55.84656308	      2.31993812	      0.00000000	      0.00000000	     -1.15542743	      1.17719529	    -12.34211809	     10.73018061	     10.73018061	      4.73911417	      0.00000000	      0.00000000	    -18.76060690	     -2.35450228	      0.96651743
      0.30833333	      6.33187643	      0.19720199	     -1.45537502	      0.31142116	      1.02106516	      0.15403703	     13.74661326	     -5.52120596	     -5.14603679	     54.35113498	     54.35113498	      2.55158151	      0.00000000	      0.00000000	     -1.92496224	      1.23859475	    -12.12401777	     10.18214934	     10.18214934	      4.80068503	      0.00000000	      0.00000000	    -18.81730653	     -2.19390220	      0.90889515
      0.31666667	      6.30778240	      0.11401065	     -1.18183796	      0.31931574	      1.02136495	      0.15356751	     14.35408111	     -5.19860558	     -5.21146482	     52.71881313	     52.71881313	      2.75146990	      0.00000000	      0.00000000	     -2.61319252	      1.22242496	    -11.78147859	      9.77237335	      9.77237335	      5.09350237	      0.00000000	      0.00000000	    -18.89069897	     -2.01494891	      0.84315992
      0.32500000	      6.27978348	      0.08401177	     -0.82278821	      0.32713653	      1.02152352	      0.15309841	     14.90712866	     -4.94338564	     -5.32395673	     50.95035907	     50.95035907	      2.87358726	      0.00000000	      0.00000000	     -3.21194394	      1.19442125	    -11.39327961	      9.55133868	      9.55133868	      5.21354605	      0.00000000	      0.00000000	    -18.96598085	     -1.88416541	      0.68150715
      0.33333333	      6.20281487	      0.10948648	     -0.46113831	      0.33491918	      1.02149898	      0.15254097	     15.47827453	     -4.79160227	     -5.46008012	     49.07060502	     49.07060502	      3.03988528	      0.00000000	      0.00000000	     -3.67058544	      1.22905459	    -11.07030136	      9.45980471	      9.45980471	      5.46116696	      0.00000000	      0.00000000	    -18.99898882	     -1.79063733	      0.49498398
      0.34166667	      6.14567139	      0.12838535	     -0.08971610	      0.34272034	      1.02141217	      0.15198732	     15.92143069	     -4.62873818	     -5.55694777	     46.92853457	     46.92853457	      2.87131199	      0.00000000	      0.00000000	     -4.17759166	      1.27526197	    -10.69074665	      9.30236111	      9.30236111	      5.79064642	      0.00000000	      0.00000000	    -19.04894708	     -1.68405014	      0.30039811
      0.35000000	      5.98804687	      0.20348403	      0.22096463	      0.35044710	      1.02089352	      0.15150836	     16.48751338	     -4.49288174	     -5.55433055	     44.82345447	     44.82345447	      2.94499440	      0.00000000	      0.00000000	     -4.56849333	      1.34892480	    -10.43680378	      9.17678421	      9.17678421	      6.09629503	      0.00000000	      0.00000000	    -18.99067384	     -1.65651565	      0.15511152
